<?xml version="1.0" encoding="iso-8859-1"?>
<!-- Generator: Adobe Illustrator 22.1.0, SVG Export Plug-In . SVG Version: 6.00 Build 0)  -->
<svg xmlns="http://www.w3.org/2000/svg" xmlns:xlink="http://www.w3.org/1999/xlink" version="1.1" id="Layer_1_1_" x="0px" y="0px" viewBox="0 0 64 64" style="enable-background:new 0 0 64 64;" xml:space="preserve" width="512" height="512">
<linearGradient id="SVGID_1_" gradientUnits="userSpaceOnUse" x1="32.0014" y1="63" x2="32.0014" y2="1">
	<stop offset="0" style="stop-color:#9F2FFF"/>
	<stop offset="1" style="stop-color:#0BB1D3"/>
</linearGradient>
<path style="fill:url(#SVGID_1_);" d="M20,57c2.757,0,5-2.243,5-5V42c0-2.757-2.243-5-5-5s-5,2.243-5,5v10  C15,54.757,17.243,57,20,57z M20,55c-1.654,0-3-1.346-3-3v-4h6v4C23,53.654,21.654,55,20,55z M20,39c1.654,0,3,1.346,3,3v4h-6v-4  C17,40.346,18.346,39,20,39z M12,8c0,1.654,1.346,3,3,3s3-1.346,3-3s-1.346-3-3-3S12,6.346,12,8z M16,8c0,0.552-0.449,1-1,1  s-1-0.448-1-1s0.449-1,1-1S16,7.448,16,8z M19,4c0,1.654,1.346,3,3,3s3-1.346,3-3s-1.346-3-3-3S19,2.346,19,4z M23,4  c0,0.552-0.449,1-1,1s-1-0.448-1-1s0.449-1,1-1S23,3.448,23,4z M27,8c0,1.654,1.346,3,3,3s3-1.346,3-3s-1.346-3-3-3S27,6.346,27,8z   M31,8c0,0.552-0.449,1-1,1s-1-0.448-1-1s0.449-1,1-1S31,7.448,31,8z M36,6c0,1.654,1.346,3,3,3s3-1.346,3-3s-1.346-3-3-3  S36,4.346,36,6z M40,6c0,0.552-0.449,1-1,1s-1-0.448-1-1s0.449-1,1-1S40,5.448,40,6z M35,59h20V41H35V59z M37,43h16v14H37V43z   M45,45c-3.309,0-6,2.243-6,5s2.691,5,6,5s6-2.243,6-5S48.309,45,45,45z M45,47c1.736,0,3.202,0.839,3.754,2h-7.509  C41.798,47.839,43.264,47,45,47z M45,53c-1.736,0-3.202-0.839-3.754-2h7.509C48.202,52.161,46.736,53,45,53z M3.151,48.296  c0.997,7.589,6.994,13.574,14.584,14.557c0.74,0.097,1.502,0.146,2.265,0.146s1.525-0.049,2.265-0.145  c3.264-0.423,6.32-1.828,8.822-3.994C31.497,61.206,33.537,63,36,63h18c2.757,0,5-2.243,5-5V38.816c1.161-0.414,2-1.514,2-2.816v-2  c0-1.654-1.346-3-3-3H32c-0.912,0-1.72,0.418-2.271,1.062C27.394,30.373,26,27.762,26,25.053V19h4v-6H10v6h4v6.053  c0,2.741-1.424,5.386-3.809,7.072C5.019,35.782,2.321,41.979,3.151,48.296z M54,61H36c-1.654,0-3-1.346-3-3V39h24v19  C57,59.654,55.654,61,54,61z M31,34c0-0.552,0.449-1,1-1h26c0.551,0,1,0.448,1,1v2c0,0.552-0.449,1-1,1H32c-0.551,0-1-0.448-1-1V34z   M12,15h16v2H12V15z M24,19v3.969c-2.112-0.128-3.63-0.643-4.988-1.105c-0.998-0.34-1.957-0.662-3.012-0.796V19H24z M11.346,33.758  C14.26,31.696,16,28.442,16,25.053v-1.96c0.773,0.128,1.53,0.379,2.367,0.664c1.437,0.489,3.187,1.083,5.633,1.215v0.081  c0,3.39,1.74,6.644,4.654,8.705c0.118,0.084,0.231,0.175,0.346,0.262V36c0,1.302,0.839,2.402,2,2.816v17.356  c-2.392,2.585-5.566,4.255-8.993,4.698c-1.31,0.17-2.705,0.171-4.015-0.001C11.406,60.018,5.999,54.62,5.134,48.036  C4.401,42.457,6.782,36.985,11.346,33.758z"/>
</svg>
