<svg id="Filled" height="512" viewBox="0 0 512 512" width="512" xmlns="http://www.w3.org/2000/svg"><path d="m104 192h96v64h-96z" fill="#f0c6a4"/><path d="m264 296v192h-224v-192a96.016 96.016 0 0 1 64-90.53c1.36-.49 2.74-.94 4.13-1.36l43.87 43.58 43.87-43.58c1.39.42 2.77.87 4.13 1.36a96.016 96.016 0 0 1 64 90.53z" fill="#7e8589"/><g fill="#4f5659"><path d="m232 392h32v32h-32z"/><path d="m72 408h160v32h-160z"/><path d="m152 247.686-48 16.314v-64z"/><path d="m152 247.686 48 16.314v-64z"/></g><circle cx="240" cy="128" fill="#f0c6a4" r="24"/><circle cx="64" cy="128" fill="#f0c6a4" r="24"/><rect fill="#f7cca9" height="192" rx="80" width="160" x="72" y="24"/><path d="m216 40c21.208 0 38.4 17.908 38.4 40h6.4c10.6 0 19.2 8.954 19.2 20s-8.6 20-19.2 20h-6.4c-21.208 0-38.4-17.909-38.4-40z" fill="#d0d2d4"/><path d="m88 40c-21.208 0-38.4 17.908-38.4 40h-6.4c-10.6 0-19.2 8.954-19.2 20s8.6 20 19.2 20h6.4c21.208 0 38.4-17.909 38.4-40z" fill="#d0d2d4"/><path d="m40 288h32v200h-32z" fill="#ad6643"/><path d="m40 392h16a16 16 0 0 1 16 16v32a0 0 0 0 1 0 0h-48a0 0 0 0 1 0 0v-32a16 16 0 0 1 16-16z" fill="#f0c6a4" transform="matrix(0 -1 1 0 -368 464)"/><path d="m24 256h48a32 32 0 0 1 32 32 0 0 0 0 1 0 0h-80a16 16 0 0 1 -16-16 16 16 0 0 1 16-16z" fill="#8c5237"/><path d="m186.039 158.255c-8.795-1.077-8.844-4.93-15.509-10.488a16.521 16.521 0 0 0 -12.792-3.619 16.09 16.09 0 0 0 -5.738 1.894 16.085 16.085 0 0 0 -5.737-1.894 16.52 16.52 0 0 0 -12.792 3.619c-6.665 5.558-6.714 9.411-15.51 10.488-7.736.946-13.961 1.723-13.961 1.723s8 22.028 40 14.427a31.248 31.248 0 0 0 8-3.018 31.255 31.255 0 0 0 8 3.018c32 7.6 40-14.427 40-14.427s-6.225-.778-13.961-1.723z" fill="#d0d2d4"/><path d="m152 247.69-48 16.31v-64l4.13 4.11z" fill="#4f5659"/><path d="m200 200v64l-48-16.31 43.87-43.58z" fill="#4f5659"/><path d="m72 440h160v48h-160z" fill="#8c5237"/><path d="m232.155 424h31.845a0 0 0 0 1 0 0v64a0 0 0 0 1 0 0h-32a0 0 0 0 1 0 0v-63.845a.155.155 0 0 1 .155-.155z" fill="#f0c6a4" transform="matrix(-1 0 0 -1 496 912)"/><path d="m360 232h32a96 96 0 0 1 96 96v112a0 0 0 0 1 0 0h-224a0 0 0 0 1 0 0v-112a96 96 0 0 1 96-96z" fill="#d1a6f7"/><path d="m479.63 288.75c-32.17 65.75-103.63 43.69-103.63 43.69s-71.46 22.06-103.63-43.69a96 96 0 0 1 87.63-56.75h32a96 96 0 0 1 87.63 56.75z" fill="#d0d2d4"/><path d="m344 224h64v56h-64z" fill="#f0c6a4"/><path d="m296 440h160v48h-160z" fill="#6a7073"/><circle cx="472" cy="72" fill="#c3c6c7" r="40"/><path d="m480 136c0-61.856-48-112-104-112s-104 50.144-104 112v24h208z" fill="#d0d2d4"/><path d="m344.77 232s-6.708 48 31.23 48a26.574 26.574 0 0 1 -24.926 16c-44.585 0-56.633-64-6.304-64z" fill="#c082d9"/><path d="m407.23 232s6.708 48-31.23 48a26.574 26.574 0 0 0 24.926 16c44.585 0 56.633-64 6.304-64z" fill="#c082d9"/><path d="m464 136h-24v24a24 24 0 1 0 24-24z" fill="#f0c6a4"/><path d="m312 160v-24h-24a24 24 0 1 0 24 24z" fill="#f0c6a4"/><path d="m296 136s56-8 80-64c24 56 80 64 80 64v32a80 80 0 0 1 -80 80 80 80 0 0 1 -80-80z" fill="#f7cca9"/><path d="m456 368h32v120h-32z" fill="#f0c6a4"/><path d="m264 288h32v200h-32z" fill="#ad6643"/><path d="m264 392h16a16 16 0 0 1 16 16v32a0 0 0 0 1 0 0h-48a0 0 0 0 1 0 0v-32a16 16 0 0 1 16-16z" fill="#f0c6a4" transform="matrix(0 -1 1 0 -144 688)"/><path d="m248 280h48a32 32 0 0 1 32 32 0 0 0 0 1 0 0h-80a16 16 0 0 1 -16-16 16 16 0 0 1 16-16z" fill="#8c5237"/><path d="m464 24a47.589 47.589 0 0 0 -29.43 10.068 104.751 104.751 0 0 0 -58.57-18.068c-29.479 0-57.478 12.548-78.837 35.333a121.874 121.874 0 0 0 -19.158 27.023 26.719 26.719 0 0 0 -16.247-6.338c-3.685-22.683-22.801-40.018-45.758-40.018a7.994 7.994 0 0 0 -7.271 4.678 88.156 88.156 0 0 0 -113.458 0 7.994 7.994 0 0 0 -7.271-4.678c-22.957 0-42.073 17.335-45.758 40.017-14.557.521-26.242 12.874-26.242 27.983a28.077 28.077 0 0 0 16.1 25.552c-.062.812-.1 1.628-.1 2.448a32.036 32.036 0 0 0 32 32 32.467 32.467 0 0 0 3.281-.17 88.148 88.148 0 0 0 25.753 41.435 103.948 103.948 0 0 0 -49.37 46.847h-19.664a23.888 23.888 0 0 0 0 47.776h8v89.488a24.038 24.038 0 0 0 -16 22.624v16a24.038 24.038 0 0 0 16 22.624v41.376a8 8 0 0 0 8 8h448a8 8 0 0 0 8-8v-160a104 104 0 0 0 -58.127-93.36l-.037.075q-1.085-1.041-2.276-2a88.135 88.135 0 0 0 25.159-40.888 32.5 32.5 0 0 0 3.281.173 31.975 31.975 0 0 0 24-53.132v-2.868a126.825 126.825 0 0 0 -1.826-21.452 47.986 47.986 0 0 0 -22.174-90.548zm-176 120v24c0 2.691.128 5.352.366 7.982-.123 0-.243.018-.366.018a16 16 0 0 1 0-32zm88-10.493a48.275 48.275 0 0 0 -21.607-17.837 112.085 112.085 0 0 0 21.607-26.106 112.085 112.085 0 0 0 21.607 26.106 48.275 48.275 0 0 0 -21.607 17.837zm17.993 69.129c-1.446 1.153-7.459 5.364-17.993 5.364s-16.547-4.211-17.993-5.364a48.332 48.332 0 0 0 17.993-16.143 48.332 48.332 0 0 0 17.993 16.143zm-25.993-42.636a32 32 0 1 1 -32-32 32.036 32.036 0 0 1 32 32zm8 112c-12.033 0-19.526-6.343-22.378-18.887a88.178 88.178 0 0 0 44.765 0c-2.845 12.544-10.342 18.887-22.387 18.887zm39.427-25.343q3.387-1.7 6.6-3.686c11.449 5.683 10.215 17.47 9.522 21.085-2.206 11.532-12.732 23.944-30.622 23.944a19.545 19.545 0 0 1 -10.034-2.553c14.207-5.367 22.965-18.987 24.534-38.79zm-54.327 38.781a19.51 19.51 0 0 1 -10.027 2.562c-17.966 0-29.116-12.715-30.844-25.276-.485-3.519-.993-14.4 9.742-19.752q3.219 1.983 6.615 3.692c1.577 19.778 10.325 33.401 24.514 38.774zm-33.1 34.45a7.889 7.889 0 0 0 7.888-7.888 39.773 39.773 0 0 0 -1.485-10.755 50.149 50.149 0 0 0 16.67 2.755 35.256 35.256 0 0 0 16.927-4.047v26.155c-10.55 2.039-34.115 4.68-55.724-6.22zm40 22.521v89.591h-64v-98.354c15.386 8.09 31.369 10.394 44.561 10.394a117.8 117.8 0 0 0 19.439-1.631zm-120-38.3a8.112 8.112 0 1 1 0-16.224h48a24.156 24.156 0 0 1 22.787 16.224zm44.025-32a87.742 87.742 0 0 1 11.974-12 41.715 41.715 0 0 0 .379 4.8 43.043 43.043 0 0 0 2.133 8.621 39.8 39.8 0 0 0 -10.511-1.418zm22.13-37.416-.028-.056a103.89 103.89 0 0 0 -41.838 37.472h-3.056a104.108 104.108 0 0 0 -58.277-70.838 88.147 88.147 0 0 0 25.763-41.444 32.513 32.513 0 0 0 3.281.173 31.8 31.8 0 0 0 16.321-4.49 31.971 31.971 0 0 0 31.679 36.49 32.483 32.483 0 0 0 3.281-.167 88.14 88.14 0 0 0 25.151 40.879q-1.191.948-2.277 1.988zm-74.521-90.713c.238-2.63.366-5.292.366-7.983v-10.354a45.1 45.1 0 0 0 14.4 2.357h1.6a16.019 16.019 0 0 1 -16 16c-.123 0-.243-.014-.366-.017zm-15.634-94.856c12.894 3.706 22.4 16.145 22.4 30.876a8 8 0 0 0 8 8h6.4a11.223 11.223 0 0 1 10.1 6.825 123.9 123.9 0 0 0 -4.257 15.406 10.568 10.568 0 0 1 -5.843 1.769h-6.4a29.462 29.462 0 0 1 -21.382-9.256c-.26-.271-.509-.554-.76-.835a48.194 48.194 0 0 0 -3.5-4.728 33.078 33.078 0 0 1 -4.758-17.181zm-8.152 57.568a48.171 48.171 0 0 0 3.568 4.824 31.983 31.983 0 0 1 -12.358 44.724c-.077-.146-.147-.3-.234-.438a8 8 0 0 0 -5.833-3.762s-6.233-.778-13.98-1.727c-3.152-.385-3.46-.72-5.853-3.326a54.094 54.094 0 0 0 -5.5-5.363 24.484 24.484 0 0 0 -14.634-5.589 31.987 31.987 0 0 1 54.827-29.343zm-32.509 59.247c-4.682 2.061-11.554 3.043-21.49.682a23.491 23.491 0 0 1 -5.94-2.214 8 8 0 0 0 -7.816 0 23.431 23.431 0 0 1 -5.942 2.215c-9.935 2.361-16.806 1.379-21.489-.682 7.747-1.359 11.039-4.943 13.965-8.129a39.314 39.314 0 0 1 3.969-3.9 8.51 8.51 0 0 1 6.632-1.829 8.066 8.066 0 0 1 2.889.956 8.006 8.006 0 0 0 7.767 0 8.068 8.068 0 0 1 2.888-.956 8.5 8.5 0 0 1 6.634 1.83 39.4 39.4 0 0 1 3.968 3.9c2.926 3.188 6.217 6.768 13.965 8.127zm-87.339-85.939v-21.253a72 72 0 0 1 112 0v21.253c0 .93.033 1.857.084 2.781a47.939 47.939 0 0 0 -56.084 18.726 47.939 47.939 0 0 0 -56.084-18.726c.051-.921.084-1.847.084-2.781zm-32 64a16.019 16.019 0 0 1 -16-16h1.6a44.8 44.8 0 0 0 14.4-2.378v10.378c0 2.69.128 5.351.366 7.98-.123.003-.243.02-.366.02zm7.777-42.146a29.635 29.635 0 0 1 -22.177 10.146h-6.4c-6.176 0-11.2-5.383-11.2-12s5.024-12 11.2-12h6.4a8 8 0 0 0 8-8c0-14.731 9.506-27.17 22.4-30.876v30.876a33.025 33.025 0 0 1 -4.8 17.225 48.087 48.087 0 0 0 -3.423 4.629zm12.881 9.537a48.236 48.236 0 0 0 3.463-4.663 32 32 0 0 1 54.864 29.306 24.483 24.483 0 0 0 -14.638 5.589 54.088 54.088 0 0 0 -5.5 5.364c-2.394 2.606-2.7 2.941-5.854 3.326-7.748.949-13.981 1.727-13.981 1.727a8 8 0 0 0 -5.833 3.762c-.081.133-.147.274-.22.411a32.182 32.182 0 0 1 -16.959-28.213 31.8 31.8 0 0 1 4.658-16.609zm3.772 58.368a47.327 47.327 0 0 0 17.706 5.878c5.786 4.673 14.114 8.339 25.367 8.339a62.068 62.068 0 0 0 14.346-1.788 42.262 42.262 0 0 0 6.151-1.949 42.237 42.237 0 0 0 6.152 1.949c18.793 4.465 31.681-.078 39.7-6.552a47.62 47.62 0 0 0 17.688-5.818 71.959 71.959 0 0 1 -127.11-.059zm103.57 49.466v33.607l-25.206-8.567zm-26.46 3.733-13.54 13.451-13.54-13.451a88.492 88.492 0 0 0 27.08 0zm-28.334 21.307-25.206 8.567v-33.607zm-41.206-26.683v38.582a39.676 39.676 0 0 0 -24-8.052h-9.846a87.926 87.926 0 0 1 33.846-30.53zm-72 62.53a8.112 8.112 0 1 1 0-16.224h48a24.156 24.156 0 0 1 22.787 16.224zm40 199.888h-16v-32h16zm0-48h-24a8.009 8.009 0 0 1 -8-8v-16a8.009 8.009 0 0 1 8-8h24zm0-48h-16v-88.112h16zm80 96h-64v-32h64zm80 0h-64v-32h64zm0-48h-144v-16h144zm8-112a8 8 0 0 0 -8 8v72h-144v-104.112h24a7.889 7.889 0 0 0 7.888-7.888 39.644 39.644 0 0 0 -3.788-16.944l35.9-12.2v37.144a8 8 0 0 0 16 0v-37.145l37.426 12.72a8 8 0 0 0 10.574-7.575v-46.379a88.982 88.982 0 0 1 44.705 54.491h-4.705a23.888 23.888 0 0 0 0 47.776h8v65.488a24.038 24.038 0 0 0 -16 22.624v-80a8 8 0 0 0 -8-8zm24 160h-16v-56a24.038 24.038 0 0 0 16 22.624zm32 0h-16v-32h16zm0-48h-24a8.009 8.009 0 0 1 -8-8v-16a8.009 8.009 0 0 1 8-8h24zm0-48h-16v-64.112h16zm160 96h-144v-32h144zm0-48h-64v-89.611a118.479 118.479 0 0 0 19.384 1.611 108.752 108.752 0 0 0 13.616-.841 91.354 91.354 0 0 0 31-9.558zm32 48h-16v-104h16zm0-152v32h-16v-37.346a88.617 88.617 0 0 0 13.646-15.012 89.108 89.108 0 0 1 2.354 20.358zm-32.733-60.934a41.41 41.41 0 0 0 .737-7 87.141 87.141 0 0 1 22.745 28.469c-12.039 22.4-30.593 35.414-55.219 38.678a100.022 100.022 0 0 1 -31.53-1.1v-26.16a35.256 35.256 0 0 0 16.927 4.047c26.973 0 42.931-19.146 46.34-36.934zm-71.267-27.066a72.058 72.058 0 0 1 -63.548-38.2 47.742 47.742 0 0 0 31.581 5.512 7.982 7.982 0 0 0 2.31 6.342c1.057 1.061 10.886 10.346 29.657 10.346 18.772 0 28.6-9.285 29.657-10.343a7.983 7.983 0 0 0 2.311-6.342 47.739 47.739 0 0 0 31.58-5.512 72.058 72.058 0 0 1 -63.548 38.197zm40-48a32 32 0 1 1 32-32 32.036 32.036 0 0 1 -32 32zm37.311-62.152a47.942 47.942 0 0 0 -34.25-17.74 97.775 97.775 0 0 1 -35.707-43.259 8 8 0 0 0 -14.708 0 97.775 97.775 0 0 1 -35.707 43.259 47.942 47.942 0 0 0 -34.306 17.811l.034-.1a32.058 32.058 0 0 0 -18.439-.864 106.953 106.953 0 0 1 28.609-66.684c18.302-19.519 42.154-30.271 67.163-30.271s48.861 10.752 67.163 30.275a106.4 106.4 0 0 1 26.677 51.959l.729 5.319c.067-.009.132-.022.2-.032q.7 4.674 1 9.438a31.894 31.894 0 0 0 -18.461.889zm10.689 46.152c-.123 0-.243-.015-.366-.018.238-2.63.366-5.291.366-7.982v-24a16 16 0 0 1 0 32zm18.244-77.734a122.042 122.042 0 0 0 -27.407-46.933q-3.42-3.648-7.064-6.936a32 32 0 0 1 34.471 53.869z"/><path d="m320 160a8 8 0 0 0 8 8h16a8 8 0 0 0 0-16h-16a8 8 0 0 0 -8 8z"/><path d="m424 152h-16a8 8 0 0 0 0 16h16a8 8 0 0 0 0-16z"/><path d="m400 368a8 8 0 0 0 8 8h16a8 8 0 0 0 0-16h-16a8 8 0 0 0 -8 8z"/><path d="m200 304h-16a8 8 0 0 0 0 16h16a8 8 0 0 0 0-16z"/><path d="m104 128h16a8 8 0 0 0 0-16h-16a8 8 0 0 0 0 16z"/><path d="m176 120a8 8 0 0 0 8 8h16a8 8 0 0 0 0-16h-16a8 8 0 0 0 -8 8z"/></svg>