<svg id="Capa_1" enable-background="new 0 0 512.033 512.033" height="512" viewBox="0 0 512.033 512.033" width="512" xmlns="http://www.w3.org/2000/svg"><g><g><path d="m479.441 323.504s-257.127 0-273.695 0-30 6.382-30 6.382l-30-6.382h-88.305c0 52.977 35.694 119.568 88.305 141.03h240.391c32.373-13.206 69.693-48.375 93.619-80.115 9.18-16.7 14.686-32.865 14.686-45.915-.001-8.285-6.717-15-15.001-15z" fill="#7f78bd"/><path d="m386.137 454.533h-225.391c-47.824-22.669-92.552-76.856-103.305-131.03h-5c-8.284 0-15 6.716-15 15 0 41.516 55.694 114.568 108.305 136.03l116.487 15 123.904-15c36.074-14.716 73.594-53.686 93.619-90.115-23.927 31.74-61.247 56.91-93.619 70.115z" fill="#5f55ad"/><path d="m160.746 474.533-10 25 235.391-10v-15z" fill="#7f78bd"/><path d="m160.746 481.777v-7.244h-15v15c0 8.284 6.716 15 15 15h210.391c8.284 0 15-6.716 15-15h-217.635c-4.284 0-7.756-3.472-7.756-7.756z" fill="#5f55ad"/><path d="m175.746 394.957v-41.453c0-16.568 13.431-30 30-30h-45l-10 71.03c0 5.613 9.275 13.374 17.539 13.374 4.457-2.601 7.461-7.419 7.461-12.951z" fill="#fff0af"/><path d="m160.746 394.533v-71.03h-15v71.03c0 8.077 6.207 15.027 14.275 15.406 3.024.142 5.854-.626 8.264-2.033-4.537-2.696-7.539-7.759-7.539-13.373z" fill="#ffd064"/><path d="m397.093 295.819-44.763-44.763-90.661 70.661 54.763 60.763c5.858 5.858 15.355-.142 21.213-6l59.448-59.448c5.858-5.857 5.858-15.355 0-21.213z" fill="#fff0af"/><path d="m316.431 376.481-54.763-54.763-.607 20.607 44.763 44.763c5.858 5.858 15.355 5.858 21.213 0l10.607-10.607c-5.857 5.858-15.355 5.858-21.213 0z" fill="#ffd064"/><path d="m353.976 231.796-38.676-54.762c-3.46-4.899-9.506-7.266-15.373-6.019l-45.369 9.65c-21.946 4.668-44.763-2.089-60.628-17.954l-150.583-150.582c-5.711-5.711-15.015-6.237-20.988-.8-.181.165-.339.344-.51.515l156.474 166.474c15.865 15.865 22.622 38.682 17.954 60.628l-9.65 45.369c-1.248 5.867 1.119 11.913 6.019 15.373l54.762 38.676c5.964 4.212 19.096-1.482 24.259-6.645l80.662-80.662c5.164-5.164 5.859-13.296 1.647-19.261z" fill="#94d8e6"/><path d="m252.408 333.363-50.717-35.819c-4.899-3.46-7.266-9.506-6.019-15.373l7.197-33.835c6.539-30.742-2.885-58.358-19.546-75.018l-161.474-161.474c-5.854 5.858-5.871 15.342-.015 21.199l150.882 150.882c15.865 15.865 22.622 38.682 17.954 60.628l-9.65 45.369c-1.248 5.867 1.119 11.913 6.019 15.373l54.762 38.676c5.965 4.213 14.096 3.518 19.26-1.646l10.606-10.606c-5.163 5.162-13.294 5.857-19.259 1.644z" fill="#61aab8"/></g><g><path d="m371.137 512.033h-210.391c-12.406 0-22.5-10.094-22.5-22.5v-10.085c-52.539-24.225-108.305-96.094-108.305-140.945 0-12.406 10.094-22.5 22.5-22.5h34.042c4.143 0 7.5 3.357 7.5 7.5s-3.357 7.5-7.5 7.5h-34.042c-4.136 0-7.5 3.364-7.5 7.5 0 17.924 12.578 45.094 32.825 70.906 20.752 26.457 46.618 47.889 69.479 57.624h154.771c4.143 0 7.5 3.357 7.5 7.5s-3.357 7.5-7.5 7.5h-148.77v7.5c0 4.136 3.364 7.5 7.5 7.5h210.391c4.136 0 7.5-3.364 7.5-7.5v-7.5h-46.619c-4.143 0-7.5-3.357-7.5-7.5s3.357-7.5 7.5-7.5h52.619c22.861-9.735 48.728-31.167 69.48-57.624 20.246-25.813 32.824-52.982 32.824-70.906 0-4.136-3.364-7.5-7.5-7.5h-85.561l-18.961 18.962c-1.407 1.406-3.314 2.196-5.304 2.196s-3.896-.79-5.304-2.196l-34.156-34.157c-2.929-2.93-2.929-7.679 0-10.607 2.93-2.928 7.678-2.928 10.607 0l28.853 28.854 22.325-22.326c1.417-1.416 2.197-3.299 2.197-5.303s-.78-3.887-2.197-5.303l-39.46-39.461-80.661 80.662 39.46 39.459c2.924 2.927 7.683 2.925 10.606 0l5.304-5.303-28.854-28.853c-2.93-2.93-2.93-7.678-.001-10.607 2.93-2.928 7.679-2.928 10.606 0l28.854 28.854 5.516-5.517c2.931-2.929 7.679-2.927 10.607 0 2.929 2.93 2.929 7.678 0 10.607l-21.426 21.426c-4.25 4.25-9.9 6.59-15.91 6.59-6.011 0-11.661-2.34-15.911-6.59l-40.361-40.362c-7.177 3.442-15.851 2.893-22.685-1.933l-27.036-19.094c-.044.001-.088.001-.133.001h-4.711c-12.406 0-22.5 10.094-22.5 22.5v41.454c0 6.121-2.541 12.056-6.971 16.281-4.494 4.286-10.379 6.49-16.608 6.192-12.012-.565-21.421-10.623-21.421-22.897v-63.53h-21.763c-4.143 0-7.5-3.357-7.5-7.5s3.357-7.5 7.5-7.5h72.869l-6.488-4.583c-7.359-5.196-10.902-14.248-9.028-23.06l9.65-45.369c4.155-19.54-1.797-39.639-15.923-53.764l-150.88-150.88c-4.328-4.329-6.728-10.322-6.583-16.443.146-6.208 2.762-11.934 7.364-16.121 8.894-8.095 22.658-7.637 31.339 1.043l150.583 150.583c14.125 14.126 34.227 20.079 53.764 15.922 4.049-.863 8.034 1.724 8.896 5.775.861 4.052-1.724 8.034-5.775 8.896-24.526 5.22-49.76-2.255-67.492-19.986l-150.583-150.583c-2.955-2.957-7.727-3.206-10.636-.557-1.54 1.401-2.415 3.313-2.464 5.381-.049 2.071.73 4.019 2.194 5.483l150.883 150.881c17.731 17.732 25.204 42.963 19.987 67.492l-9.65 45.369c-.625 2.938.557 5.954 3.009 7.687l54.763 38.676c2.993 2.112 7.042 1.767 9.631-.823l91.267-91.269c2.59-2.589 2.936-6.639.823-9.63l-38.675-54.762c-1.732-2.451-4.748-3.636-7.687-3.009l-14.114 3.001c-4.049.859-8.033-1.724-8.896-5.776-.861-4.051 1.725-8.034 5.776-8.896l14.113-3.001c8.809-1.877 17.861 1.669 23.059 9.027l38.676 54.762c4.825 6.833 5.374 15.507 1.933 22.686l40.362 40.361c6.881 6.882 8.364 17.146 4.451 25.487h72.442c12.406 0 22.5 10.094 22.5 22.5 0 44.851-55.766 116.72-108.305 140.945v10.085c.001 12.408-10.093 22.501-22.499 22.501zm-217.891-181.03v63.53c0 4.179 3.197 7.729 7.127 7.914 2.075.103 4.05-.634 5.549-2.063 1.499-1.43 2.324-3.357 2.324-5.428v-41.454c0-8.435 2.8-16.229 7.518-22.5h-22.518z"/></g></g></svg>