<svg height="512" viewBox="0 0 512 512" width="512" xmlns="http://www.w3.org/2000/svg"><g><g><g><g><path d="m352.018 184.025-.018 72a72 72 0 0 1 -72.019 71.981l-48-.012a72 72 0 0 1 -71.981-72.019l.019-72z" fill="#ffc477"/><path d="m199.98 343.99-23.98 5.04" fill="none"/><path d="m336 349.07-24.02-5.06" fill="none"/><path d="m336 351.18v16.82a40 40 0 0 1 -40 40h-80a40 40 0 0 1 -40-40v-16.87l26.86.01c7.4 18.41 28.4 32.86 53.14 32.86s45.72-14.44 53.13-32.83z" fill="#4e901e"/><path d="m309.13 359.17c-7.41 18.39-28.4 24.83-53.13 24.83s-45.74-6.45-53.14-24.86z" fill="#ffdaaa"/><path d="m495.94 496.06-88-.02-152-.04-39.94-.01-40-.01-48-.01-24.06-.01-88-.02 10.18-39.94.02-.06 8.57-33.63a79.961 79.961 0 0 1 60.45-56.29l32.84-6.9 48 .01v8.87a40 40 0 0 0 40 40h80a40 40 0 0 0 40-40v-8.82l48 .01 32.78 6.91a80.035 80.035 0 0 1 50.06 33.9c.19.28.37.57.56.86a79.65 79.65 0 0 1 9.81 21.57l7.77 30.53v.02l.77 3.02z" fill="#4e901e"/><g fill="none"><path d="m103.949 455.961-.011 40"/><path d="m407.949 456.039-.011 40"/><path d="m239.996 279.996 32 .008"/></g><path d="m148.01 183.971h12a0 0 0 0 1 0 0v64a0 0 0 0 1 0 0h-12a20 20 0 0 1 -20-20v-24a20 20 0 0 1 20-20z" fill="#ffc477"/><path d="m372.01 184.029h12a0 0 0 0 1 0 0v64a0 0 0 0 1 0 0h-12a20 20 0 0 1 -20-20v-24a20 20 0 0 1 20-20z" fill="#ffc477" transform="matrix(-1 0 0 -1 735.965 432.152)"/></g><path d="m376 120v56h-240v-56a91.249 91.249 0 0 1 5.79-32h82.21l40-32-25.9-38.85a138.726 138.726 0 0 1 17.9-1.15c28.97 0 55.54 8.89 76.27 23.71 15.6 11.13 27.89 25.62 35.42 42.18l.01.01a91.735 91.735 0 0 1 8.3 38.1z" fill="#4e901e"/></g><path d="m384 344v152h-256v-152h48v24a40 40 0 0 0 40 40h80a40 40 0 0 0 40-40v-24z" fill="#5f4d37"/><path d="m176 448h40v48h-40z" fill="#4e901e"/><path d="m296 448h40v48h-40z" fill="#4e901e"/><path d="m486 456h-53.88v-56h34.99z" fill="#5f4d37"/><path d="m45.01 400h34.99v56h-53.88z" fill="#5f4d37"/><path d="m312 320v23c0 .34 0 .67-.01 1v.01a42.16 42.16 0 0 1 -2.86 15.16c-7.41 18.39-28.4 24.83-53.13 24.83s-45.74-6.45-53.14-24.86a42.1 42.1 0 0 1 -2.85-15.14c-.01-.33-.01-.66-.01-1v-23z" fill="#ffc477"/><g fill="#5f4d37"><path d="m312 176h-56v-32l24-24h24z"/><path d="m332.27 39.71-28.21 40.95 15.97 22.97h33.94l13.73-21.73z"/><path d="m264 56-40 32h-82.21c13.8-37.02 50.89-64.96 96.3-70.84l.01-.01z"/></g></g><path d="m200 343c0 .34 0 .67.01 1h-.01z" fill="#ffdaaa"/><path d="m312 343v1h-.01c.01-.33.01-.66.01-1z" fill="#ffdaaa"/><g><path d="m503.69 494.09-18.73-73.63c-.02-.08-.04-.15-.06-.23a87.82 87.82 0 0 0 -66.47-61.96l-26.43-5.57v-8.7a8 8 0 0 0 -8-8h-48a7.989 7.989 0 0 0 -6.61 3.5l-9.41-1.98v-12.21a80.083 80.083 0 0 0 40.02-69.28h4.01a28.041 28.041 0 0 0 28-27.99v-24a27.868 27.868 0 0 0 -8.46-20.04h16.45a8 8 0 0 0 0-16h-16v-48c0-61.76-57.42-112-128-112s-128 50.24-128 112v48h-16a8 8 0 0 0 0 16h16.42a27.933 27.933 0 0 0 -8.41 19.96v24a28.024 28.024 0 0 0 27.99 28.01h4a80.028 80.028 0 0 0 39.98 69.25v12.28l-9.39 1.97a7.99 7.99 0 0 0 -6.59-3.47h-48a8 8 0 0 0 -8 8v8.63l-26.49 5.56a87.8 87.8 0 0 0 -66.49 61.92c-.02.07-.04.15-.06.22l-18.77 73.63a7.994 7.994 0 0 0 7.75 9.98l480 .12a7.976 7.976 0 0 0 3.52-.81 8.1 8.1 0 0 0 2.8-2.28 8.008 8.008 0 0 0 1.43-6.88zm-461.26-69.69a72.7 72.7 0 0 1 7.01-16.4h22.56v40h-35.58zm77.57 63.57-8.06-.01.01-32a8 8 0 1 0 -16 0l-.01 32-69.71-.02 6.11-23.94h47.66a8 8 0 0 0 8-8v-56a8 8 0 0 0 -8-8h-17.88a71.9 71.9 0 0 1 34.69-18.15l23.19-4.87zm256.01-283.94v24a12.016 12.016 0 0 1 -12 12h-4.01l.01-32 .01-16h4a12 12 0 0 1 11.99 12zm-17.47-122.62-8.98 14.22h-25.35l-10.42-14.99 20.26-29.42a97.665 97.665 0 0 1 24.49 30.19zm-124.27-55.59 19 28.51-32.08 25.67h-66.99c14.8-27.58 44.42-48.15 80.07-54.18zm-90.27 94.18a83.065 83.065 0 0 1 3.54-24h76.46a8.028 8.028 0 0 0 5-1.75l40-32a8.011 8.011 0 0 0 1.66-10.69l-18.34-27.5c1.22-.04 2.45-.06 3.68-.06a124.4 124.4 0 0 1 65.05 17.9l-23.58 34.22a8.01 8.01 0 0 0 .02 9.11l15.97 22.97a8.007 8.007 0 0 0 6.57 3.43h33.94a8 8 0 0 0 6.76-3.73l4.87-7.7a82.824 82.824 0 0 1 2.4 19.8v48h-49.06l-7.02-49.13a8 8 0 0 0 -7.92-6.87h-24a8.008 8.008 0 0 0 -5.66 2.34l-24 24a8.008 8.008 0 0 0 -2.34 5.66v24h-104zm158.78 48h-38.78v-20.69l19.31-19.31h13.75zm-150.77 39.97-.01 32h-4a12.007 12.007 0 0 1 -11.99-12v-24a12.022 12.022 0 0 1 12-12h4.01zm15.99 48.01.02-71.98h176v.02l-.02 72a64.105 64.105 0 0 1 -35.73 57.42l-.12.06a63.686 63.686 0 0 1 -28.15 6.51h-.02l-48-.02a64.064 64.064 0 0 1 -63.98-64.01zm135.99 88.36c-.11 9.23-2.38 31.66-47.99 31.66-11.87 0-48 0-48-33 0-.15-.01-.29-.02-.44v-10.26a79.365 79.365 0 0 0 24 3.69l48 .02h.02a80.093 80.093 0 0 0 23.98-3.66v11.66c0 .11.01.22.01.33zm-119.99 11.18 9-1.89c3.42 17.57 17.16 38.37 63 38.37 45.81 0 59.56-20.78 63-38.34l9 1.9v12.44a32.036 32.036 0 0 1 -32 32h-80a32.036 32.036 0 0 1 -32-32zm24 132.47-24-.01v-31.98h24zm120 .01h-24v-32h24zm48 0h-32v-40a8 8 0 0 0 -8-8h-40a8 8 0 0 0 -8 8v40h-32.06l-31.94-.01v-39.99a8 8 0 0 0 -8-8h-40a8 8 0 0 0 -8 8v39.98l-32-.01v-135.97h32v16a48.051 48.051 0 0 0 48 48h80a48.051 48.051 0 0 0 48-48v-16h32zm93.49-63.48 5.97 23.48h-35.34v-40h22.3a72.5 72.5 0 0 1 7.07 16.52zm-53.55 63.52.01-32a8 8 0 1 0 -16 0l-.01 32-7.94-.01v-118.98l23.13 4.88a71.946 71.946 0 0 1 34.57 18.07h-17.58a8 8 0 0 0 -8 8v56a8 8 0 0 0 8 8h47.41l6.12 24.06z"/><path d="m208.018 191.988a16 16 0 1 0 16 16 16 16 0 0 0 -16-16z"/><path d="m304.01 224.012a16 16 0 1 0 -16-16 16 16 0 0 0 16 16z"/><path d="m239.994 288 32 .008a8 8 0 0 0 0-16l-31.994-.008a8 8 0 0 0 0 16z"/></g></g></svg>