<svg id="Capa_1" enable-background="new 0 0 512.002 512.002" height="512" viewBox="0 0 512.002 512.002" width="512" xmlns="http://www.w3.org/2000/svg"><g><g><path d="m26.607 248.501h458.79v241h-458.79z" fill="#eaf6ff"/><path d="m455.396 248.501h30v241h-30z" fill="#d8ecfe"/><path d="m49.107 248.501h30v241h-30z" fill="#d8ecfe"/><path d="m497.502 259.055h-483c-3.866 0-7-3.134-7-7v-31c0-3.866 3.134-7 7-7h483c3.866 0 7 3.134 7 7v31c0 3.866-3.134 7-7 7z" fill="#f58a97"/><path d="m49.107 214.055h30v45h-30z" fill="#f07281"/><path d="m497.502 214.055h-30c3.866 0 7 3.134 7 7v31c0 3.866-3.134 7-7 7h30c3.866 0 7-3.134 7-7v-31c0-3.866-3.134-7-7-7z" fill="#f07281"/><path d="m433.3 474.501h-354.193v-230.446l15-7.5-15-7.5v-191.554h354.193v191.554l-15 7.5 15 7.5z" fill="#eaf6ff"/><path d="m403.3 52.501v437h30v-245.446l-15-7.5 15-7.5v-176.554z" fill="#d8ecfe"/><g><path d="m183.494 474.501h-74.387v-146.825c0-5.523 4.477-10 10-10h54.387c5.523 0 10 4.477 10 10z" fill="#c4e2ff"/></g><g><path d="m293.195 474.501h-74.387v-146.825c0-5.523 4.477-10 10-10h54.387c5.523 0 10 4.477 10 10z" fill="#c4e2ff"/></g><g><path d="m403.3 474.501h-74.387v-146.825c0-5.523 4.477-10 10-10h54.387c5.523 0 10 4.477 10 10z" fill="#c4e2ff"/></g><g fill="#b3dafe"><path d="m393.3 317.676h-30c5.523 0 10 4.477 10 10v146.825h30v-146.825c0-5.523-4.477-10-10-10z"/><path d="m283.195 317.676h-30c5.523 0 10 4.477 10 10v146.825h30v-146.825c0-5.523-4.477-10-10-10z"/><path d="m173.091 317.676h-30c5.523 0 10 4.477 10 10v146.825h30v-146.825c0-5.523-4.478-10-10-10z"/></g><g><g><path d="m312.171 148.576h-112.339c-2.489 0-4.815-1.234-6.21-3.295-1.396-2.061-1.677-4.679-.753-6.99l20.166-50.414c3.128-7.821 10.593-12.875 19.017-12.875h47.9c8.424 0 15.889 5.054 19.018 12.875l20.165 50.414c.924 2.311.643 4.93-.753 6.99-1.396 2.061-3.722 3.295-6.211 3.295zm-101.261-15h90.184l-16.051-40.128c-.837-2.094-2.835-3.446-5.09-3.446h-47.9c-2.255 0-4.253 1.353-5.09 3.446z" fill="#f6b2bb"/></g><path d="m300.522 206.555h-89.042c-3.44 0-6.474-2.25-7.473-5.542l-18.689-61.574c-1.522-5.016 2.231-10.078 7.473-10.078h126.419c5.242 0 8.996 5.062 7.473 10.078l-18.689 61.574c-.997 3.292-4.032 5.542-7.472 5.542z" fill="#f58a97"/><path d="m319.211 129.361h-30c5.242 0 8.996 5.062 7.473 10.078l-18.689 61.574c-.999 3.291-4.034 5.542-7.473 5.542h30c3.44 0 6.474-2.25 7.473-5.542l18.689-61.574c1.523-5.016-2.231-10.078-7.473-10.078z" fill="#f07281"/></g><g><path d="m79.107 229.055h354.193v15h-354.193z" fill="#3d6d93"/></g><path d="m403.3 229.055h30v15h-30z" fill="#335e80"/><path d="m445.002 52.501h-378c-3.866 0-7-3.134-7-7v-31c0-3.866 3.134-7 7-7h378c3.866 0 7 3.134 7 7v31c0 3.866-3.134 7-7 7z" fill="#f58a97"/><path d="m445.002 7.501h-30c3.866 0 7 3.134 7 7v31c0 3.866-3.134 7-7 7h30c3.866 0 7-3.134 7-7v-31c0-3.866-3.134-7-7-7z" fill="#f07281"/><path d="m489.502 504.501h-467c-8.284 0-15-6.716-15-15 0-8.284 6.716-15 15-15h467c8.284 0 15 6.716 15 15 0 8.284-6.716 15-15 15z" fill="#3d6d93"/><path d="m489.502 474.501h-30c8.284 0 15 6.716 15 15s-6.716 15-15 15h30c8.284 0 15-6.716 15-15s-6.716-15-15-15z" fill="#335e80"/></g><path d="m196.831 203.192c1.972 6.498 7.859 10.863 14.65 10.863h89.042c6.791 0 12.678-4.366 14.65-10.863l18.689-61.574c3.014-9.692-4.625-19.828-14.65-19.757h-6.652l-13.593-33.982c-3.126-7.822-10.589-12.877-19.014-12.877h-47.9c-8.425 0-15.888 5.055-19.013 12.875l-13.594 33.985h-6.652c-10.221-.081-17.652 10.082-14.65 19.757zm30.135-109.747c.836-2.092 2.832-3.443 5.085-3.443h47.9c2.253 0 4.25 1.352 5.086 3.446l11.365 28.414h-80.804zm-34.423 43.541c.093-.125.183-.125.249-.125h126.419c.066 0 .156 0 .249.125s.067.212.048.275l-18.689 61.574c-.04.131-.159.22-.296.22h-89.042c-.137 0-.256-.088-.296-.22l-18.689-61.574c-.02-.063-.046-.149.047-.275zm319.459 115.065v-31c0-7.995-6.505-14.5-14.5-14.5h-56.702v-146.55c9.079 1.068 18.8-4.343 18.702-14.5v-31c0-7.995-6.505-14.5-14.5-14.5h-378c-7.995 0-14.5 6.505-14.5 14.5v31c-.145 9.811 9.701 16.172 19.105 14.5v146.55h-57.105c-7.995 0-14.5 6.505-14.5 14.5v31c-.144 9.797 9.702 16.182 19.105 14.5v200.706c-10.802 1.642-19.105 10.991-19.105 22.244 0 12.407 10.093 22.5 22.5 22.5h467c12.407 0 22.5-10.093 22.5-22.5 0-11.253-8.303-20.602-19.105-22.244v-200.706c9.157 1.072 19.213-4.093 19.105-14.5zm-444.5-207.05v-30h377v30h-259.059c-4.142 0-7.5 3.358-7.5 7.5s3.358 7.5 7.5 7.5h240.357v169.054h-339.193v-169.054h63.837c4.142 0 7.5-3.358 7.5-7.5s-3.358-7.5-7.5-7.5zm373.298 221.55h37.097v200.45h-37.097zm-47.5 43.625h-54.387c-9.649 0-17.5 7.851-17.5 17.5v72.618c0 4.142 3.358 7.5 7.5 7.5s7.5-3.358 7.5-7.5v-72.618c0-1.378 1.122-2.5 2.5-2.5h54.387c1.378 0 2.5 1.122 2.5 2.5v139.325h-59.387v-31.708c0-4.142-3.358-7.5-7.5-7.5s-7.5 3.358-7.5 7.5v31.708h-20.717v-139.325c0-9.649-7.851-17.5-17.5-17.5h-54.388c-9.649 0-17.5 7.851-17.5 17.5v139.325h-20.313v-139.325c0-9.649-7.851-17.5-17.5-17.5h-54.388c-9.649 0-17.5 7.851-17.5 17.5v139.325h-15v-222.946h339.193v222.946h-15v-139.325c0-9.649-7.851-17.5-17.5-17.5zm-107.605 17.5v139.325h-59.388v-139.325c0-1.378 1.122-2.5 2.5-2.5h54.388c1.379 0 2.5 1.122 2.5 2.5zm-109.701 0v139.325h-59.388v-139.325c0-1.378 1.122-2.5 2.5-2.5h54.388c1.379 0 2.5 1.122 2.5 2.5zm-160.992-76.125v-30h56.605v30zm56.605 15v200.45h-37.5v-200.45zm425.395 222.95c0 4.136-3.364 7.5-7.5 7.5h-467c-4.136 0-7.5-3.364-7.5-7.5s3.364-7.5 7.5-7.5h467c4.135 0 7.5 3.364 7.5 7.5zm-56.202-237.95v-30h56.202v30z"/></g></svg>